<?xml version="1.0" encoding="UTF-8"?>
<svg id="NY" xmlns="http://www.w3.org/2000/svg" viewBox="0 0 720 540">
  <defs>
    <style>
      .cls-1 {
        fill: #00005e;
      }

      .cls-1, .cls-2, .cls-3, .cls-4, .cls-5, .cls-6, .cls-7, .cls-8, .cls-9, .cls-10, .cls-11, .cls-12, .cls-13, .cls-14, .cls-15, .cls-16, .cls-17, .cls-18, .cls-19, .cls-20, .cls-21, .cls-22, .cls-23, .cls-24, .cls-25, .cls-26, .cls-27, .cls-28, .cls-29, .cls-30, .cls-31, .cls-32, .cls-33, .cls-34, .cls-35, .cls-36, .cls-37, .cls-38, .cls-39, .cls-40, .cls-41, .cls-42, .cls-43, .cls-44, .cls-45, .cls-46, .cls-47, .cls-48, .cls-49 {
        fill-rule: evenodd;
      }

      .cls-2 {
        fill: #000086;
      }

      .cls-3 {
        fill: #000075;
      }

      .cls-4 {
        fill: #000061;
      }

      .cls-5 {
        fill: #007;
      }

      .cls-6 {
        fill: #00007d;
      }

      .cls-7 {
        fill: #000057;
      }

      .cls-8 {
        fill: #00004c;
      }

      .cls-9 {
        fill: #004;
      }

      .cls-10 {
        fill: #000038;
      }

      .cls-11 {
        fill: #008;
      }

      .cls-12 {
        fill: #000056;
      }

      .cls-13 {
        fill: #000060;
      }

      .cls-14 {
        fill: #00004e;
      }

      .cls-15 {
        fill: #000085;
      }

      .cls-16 {
        fill: #00006c;
      }

      .cls-17 {
        fill: #000071;
      }

      .cls-18 {
        fill: #000067;
      }

      .cls-19 {
        fill: #000063;
      }

      .cls-20 {
        fill: #000048;
      }

      .cls-21 {
        fill: #00006e;
      }

      .cls-22 {
        fill: #00006a;
      }

      .cls-23 {
        fill: #00004f;
      }

      .cls-24 {
        fill: #000068;
      }

      .cls-25 {
        fill: #00002e;
      }

      .cls-26 {
        fill: #000054;
      }

      .cls-27 {
        fill: #0000e4;
      }

      .cls-28 {
        fill: #000043;
      }

      .cls-29 {
        fill: #00005a;
      }

      .cls-30 {
        fill: #000058;
      }

      .cls-31 {
        fill: #00006d;
      }

      .cls-32 {
        fill: #00002b;
      }

      .cls-33 {
        fill: #000070;
      }

      .cls-34 {
        fill: #006;
      }

      .cls-35 {
        fill: #000053;
      }

      .cls-36 {
        fill: #00003c;
      }

      .cls-37 {
        fill: #000074;
      }

      .cls-38 {
        fill: #00005f;
      }

      .cls-39 {
        fill: #000059;
      }

      .cls-40 {
        fill: #000052;
      }

      .cls-41 {
        fill: #00009d;
      }

      .cls-42 {
        fill: #000073;
      }

      .cls-43 {
        fill: #00004d;
      }

      .cls-44 {
        fill: #00004b;
      }

      .cls-45 {
        fill: #000062;
      }

      .cls-46 {
        fill: #00004a;
      }

      .cls-47 {
        fill: #000032;
      }

      .cls-48 {
        fill: #00009a;
      }

      .cls-49 {
        fill: #000027;
      }
    </style>
  </defs>
  <polygon class="cls-35" points="439.6 134.98 469.61 134.02 469.34 135.54 469.98 138.63 467.94 143.93 468.53 145.73 470.4 146.97 468.35 151.66 469.01 154.4 468.35 155.59 468.48 157.26 467.96 158.17 468.43 160.7 469.47 162.27 470.06 162.87 464.06 163.37 463.72 164.13 464.23 164.9 462.54 166.6 460.95 166.45 459.61 168.11 457.06 168.58 454.9 169.62 453.76 169.39 452.46 169.78 451.86 169.39 444.51 170.31 442.14 153.19 440.71 153.16 439.6 134.98"/>
  <polygon class="cls-39" points="439.6 134.98 440.71 153.16 442.14 153.19 444.51 170.31 434.56 171.81 436.47 188.09 428.2 189.26 416.77 190.66 416.02 186.95 416.89 185.59 411.79 137.85 408.84 137.73 407.91 134.85 439.6 134.98"/>
  <polygon class="cls-41" points="465.02 209.01 437.93 212.6 438.07 209.31 434.47 207.97 433.96 207.16 432.22 207.41 431.13 208.2 425.84 201.41 429.19 198.39 428.2 189.26 436.47 188.09 434.56 171.81 444.51 170.31 451.86 169.39 452.46 169.78 453.76 169.39 454.9 169.62 457.06 168.58 459.61 168.11 460.95 166.45 462.54 166.6 464.23 164.9 463.72 164.13 464.06 163.37 470.06 162.87 471.89 169.8 471.59 171.49 470.27 173.86 471.35 180.51 468.16 184.15 467.95 185.95 466.81 188.17 466.77 190 465.6 192.64 465.56 193.76 466.79 195.45 466.38 197.31 466.92 201.83 468.26 203.6 467.83 208.61 465.02 209.01"/>
  <polygon class="cls-27" points="433.48 235.28 434.21 242.49 430.67 242.66 430.73 244.32 426.33 244.89 426.1 243.34 416.85 243.9 408.85 240.41 401.93 237.09 406.02 228.58 402.67 192.25 416.77 190.66 428.2 189.26 429.19 198.39 425.84 201.41 431.13 208.2 432.22 207.41 433.96 207.16 434.47 207.97 438.07 209.31 437.93 212.6 431.03 213.68 433.48 235.28"/>
  <polygon class="cls-37" points="402.67 192.25 406.02 228.58 401.93 237.09 408.85 240.41 409.76 246.33 408.71 247.33 408.55 248.36 407.86 248.64 407.7 249.83 406.4 251.17 406.2 252.8 406.65 254.42 407.41 255.02 407.52 258.25 406.69 265.8 401.35 263.76 401.05 267.66 400.17 268.17 391.83 263.14 390.2 265.97 386.79 266.17 386.77 264.66 386.71 253.86 393.19 243.72 390.45 242.89 390.22 242.34 389.21 242.38 389.04 241.91 389.6 239.44 391.01 238.84 391.71 238.99 392.1 238.57 391.89 237.86 392.65 237.82 391.1 220.46 388.94 190.85 393.23 193.36 402.67 192.25"/>
  <polygon class="cls-11" points="458.17 239.27 456.28 239.19 455.55 239.82 455.27 241.32 454.43 241.17 453.9 240.2 452.42 240.81 451.78 241.33 451.92 242.11 451.36 243.24 450.66 243.8 449.46 242.38 447.82 242.18 448.41 239.63 447.07 237.91 447.1 236.94 446.16 235.72 445.68 233.47 433.48 235.28 431.03 213.68 437.93 212.6 465.02 209.01 463.84 209.9 464 211.38 463.02 215.51 463.01 217.55 461.26 218.85 458.41 223.27 457.43 223.52 457.65 224.24 457.23 225.41 456.33 226.19 458.17 239.27"/>
  <polygon class="cls-1" points="448.43 271.31 445.2 267.1 444.7 263.63 442.46 264.09 441.51 262.91 438.02 260.77 436.43 260.74 436.15 258.65 434.21 242.49 433.48 235.28 445.68 233.47 446.16 235.72 447.1 236.94 447.07 237.91 448.41 239.63 447.82 242.18 449.46 242.38 450.66 243.8 451.36 243.24 451.92 242.11 451.78 241.33 452.42 240.81 453.9 240.2 454.43 241.17 455.27 241.32 455.55 239.82 456.28 239.19 458.17 239.27 458.06 240.83 458.67 241.8 458.33 243.02 458.93 244.76 458.36 247.72 459.18 251.26 457.82 258.57 456.98 259.72 456.67 261.38 455.36 262.58 454.77 263.9 454.95 267.23 455.5 268.94 454.8 271.98 452.18 269.31 450.84 270.74 449.76 270.54 448.93 271.39 448.43 271.31"/>
  <polygon class="cls-24" points="434.21 242.49 436.15 258.65 416.69 258.77 407.41 255.02 406.65 254.42 406.2 252.8 406.4 251.17 407.7 249.83 407.86 248.64 408.55 248.36 408.71 247.33 409.76 246.33 408.85 240.41 416.85 243.9 426.1 243.34 426.33 244.89 430.73 244.32 430.67 242.66 434.21 242.49"/>
  <polygon class="cls-29" points="406.69 265.8 407.52 258.25 407.41 255.02 416.69 258.77 436.15 258.65 436.43 260.74 436.72 263.96 429.3 269.12 429.08 270 428 270.85 424.18 270.89 420.64 271.68 415.11 268.82 411.78 267.72 406.69 265.8"/>
  <polygon class="cls-23" points="469.34 287.62 450.33 290.29 449.94 289.11 451.08 285.21 451.01 281.57 453.96 276.1 454.8 271.98 455.5 268.94 454.95 267.23 454.77 263.9 455.36 262.58 456.67 261.38 464.3 261.33 465.86 260.43 467.99 261.46 472.65 261.33 472.5 267.57 471.76 269.6 472.95 272.99 473.45 273.07 469.34 287.62"/>
  <polygon class="cls-8" points="448.43 271.31 432.6 274.16 431.41 275.15 429.03 275.08 427.09 273.66 427.78 272.56 428.86 272.33 429.5 271.34 429.58 270.24 429.08 270 429.3 269.12 436.72 263.96 436.43 260.74 438.02 260.77 441.51 262.91 442.46 264.09 444.7 263.63 445.2 267.1 448.43 271.31"/>
  <polygon class="cls-17" points="386.77 264.66 386.79 266.17 390.2 265.97 391.83 263.14 400.17 268.17 401.05 267.66 401.35 263.76 406.69 265.8 411.78 267.72 410.7 272.61 412.13 278.17 412.31 280.5 411.77 282.31 408.71 286.71 406.37 287.58 403.52 287 399.14 289.72 398.96 289.01 397.78 289.26 397.05 290.83 396.69 290.72 396.29 291.3 395.68 291.03 395.22 292.35 392.55 292.68 390.1 294.84 387.78 296.09 387.71 295.11 386.51 295.92 384.97 296.24 382.64 298.58 381.02 299.07 378.01 298.6 378.86 296.29 378.34 294.45 379.66 292.41 378.68 289.56 378.79 287.53 379.41 286.89 379.8 285.22 381.41 283.61 381.97 280.73 381.96 277.93 383.53 272.92 384.93 270.54 385.42 267.56 385.03 265.37 385.33 264.9 386.77 264.66"/>
  <polygon class="cls-15" points="432.6 274.16 433.6 275.34 433.33 278.27 430.08 285.07 430.37 287.89 429.52 290.92 429.44 293.6 429.75 295.45 428.6 296.24 425.46 296.69 424.14 295.63 421.06 296.54 413.1 292.09 408.71 286.71 411.77 282.31 412.31 280.5 412.13 278.17 410.7 272.61 411.78 267.72 415.11 268.82 420.64 271.68 424.18 270.89 428 270.85 429.08 270 429.58 270.24 429.5 271.34 428.86 272.33 427.78 272.56 427.09 273.66 429.03 275.08 431.41 275.15 432.6 274.16"/>
  <polygon class="cls-14" points="450.33 290.29 429.44 293.6 429.52 290.92 430.37 287.89 430.08 285.07 433.33 278.27 433.6 275.34 432.6 274.16 448.43 271.31 448.93 271.39 449.76 270.54 450.84 270.74 452.18 269.31 454.8 271.98 453.96 276.1 451.01 281.57 451.08 285.21 449.94 289.11 450.33 290.29"/>
  <polygon class="cls-41" points="389.64 326.45 388.61 325.73 384.92 325.67 383.63 320.98 381.84 320.16 380.88 318.28 379.24 317.95 378.21 316.94 377.26 314.43 377.53 306.25 378.01 298.6 381.02 299.07 382.64 298.58 384.97 296.24 386.51 295.92 387.71 295.11 387.78 296.09 390.1 294.84 392.55 292.68 395.22 292.35 395.68 291.03 396.29 291.3 396.69 290.72 397.05 290.83 397.78 289.26 398.96 289.01 399.14 289.72 403.52 287 406.37 287.58 408.71 286.71 413.1 292.09 421.06 296.54 421.75 297.11 416.98 306.04 420.67 307.73 418.07 309.27 416.81 309.41 415.5 310.97 405.57 316.57 389.64 326.45"/>
  <polygon class="cls-48" points="463.42 315.02 461.53 314.93 461.29 318.89 452.43 317.45 444.87 313.09 443.37 313.2 444.16 310.02 444.91 308.1 446.58 306.55 447.74 303.51 449.12 302.26 450.28 300.16 449.74 294.46 450.52 291.19 450.33 290.29 469.34 287.62 462.77 313.23 463.42 315.02"/>
  <polygon class="cls-2" points="450.33 290.29 450.52 291.19 449.74 294.46 450.28 300.16 449.12 302.26 447.74 303.51 446.58 306.55 444.91 308.1 444.16 310.02 440.65 307.25 439.99 308.45 438.76 307.96 437.25 312.09 427.49 311.13 420.67 307.73 416.98 306.04 421.75 297.11 421.06 296.54 424.14 295.63 425.46 296.69 428.6 296.24 429.75 295.45 429.44 293.6 450.33 290.29"/>
  <polygon class="cls-16" points="424.13 341.98 423.03 339.16 414.98 333.03 420.34 325.49 405.57 316.57 415.5 310.97 416.81 309.41 418.07 309.27 420.67 307.73 427.49 311.13 437.25 312.09 438.76 307.96 439.99 308.45 440.65 307.25 444.16 310.02 443.37 313.2 442.29 323.09 443.17 326.06 442.78 331.52 443.19 334 442.53 342.38 438.28 342.65 436.92 341.12 434.77 340.66 434.83 342.44 432.02 341.96 429.32 341.16 429.18 339.52 425.27 341.76 424.13 341.98"/>
  <polygon class="cls-26" points="388.94 190.85 376.38 183.31 358.61 172.44 362.57 164.54 381.63 146.26 397.61 137.63 407.91 134.85 408.84 137.73 411.79 137.85 416.89 185.59 416.02 186.95 416.77 190.66 402.67 192.25 393.23 193.36 388.94 190.85"/>
  <polygon class="cls-25" points="342.75 216.09 341.23 206.73 343.28 201.97 346.15 200.75 345.9 195.76 342.93 192.53 338.7 193.99 335.78 190.51 358.61 172.44 376.38 183.31 371.88 190.17 374.54 192.07 373.94 193.37 374.51 193.92 373.85 194.72 373.84 196.04 371.84 196.07 371.86 198.82 369.18 198.84 362.88 204.03 358.93 203.71 358.48 209.15 361.16 209.55 361.86 215.63 350.39 214.68 350.49 216.77 342.75 216.09"/>
  <polygon class="cls-19" points="361.86 215.63 361.16 209.55 358.48 209.15 358.93 203.71 362.88 204.03 369.18 198.84 371.86 198.82 371.84 196.07 373.84 196.04 373.85 194.72 374.51 193.92 373.94 193.37 374.54 192.07 371.88 190.17 376.38 183.31 388.94 190.85 391.1 220.46 372.45 232.02 362.56 229.13 361.86 215.63"/>
  <polygon class="cls-46" points="352.38 246.39 349.62 244.95 348.64 245.08 348.23 243.9 343.06 241.16 342.32 241.49 342.76 243.72 341.95 244.93 340.07 243.2 339.88 244.62 338.95 245.33 338.04 243.42 330.47 243.91 330.48 242.05 325.18 242.14 324.39 232.51 331.71 227.23 341.99 223.96 343.68 219.12 342.75 216.09 350.49 216.77 350.39 214.68 361.86 215.63 362.56 229.13 360.09 228.59 357.1 237.26 358.12 237.99 357.29 248.09 355.58 247.9 354.26 246.93 352.38 246.39"/>
  <polygon class="cls-1" points="386.77 264.66 385.33 264.9 385.03 265.37 376.83 265.7 376.57 261.44 372.4 261.23 371.88 255.04 369.71 255.04 369.52 253.36 368.12 252.86 367.33 250.69 365.13 249.16 365.03 248.14 364.47 248.09 364.21 247.54 363.16 247.92 361.97 247.06 360.52 247.97 357.29 248.09 358.12 237.99 357.1 237.26 360.09 228.59 362.56 229.13 372.45 232.02 391.1 220.46 392.65 237.82 391.89 237.86 392.1 238.57 391.71 238.99 391.01 238.84 389.6 239.44 389.04 241.91 389.21 242.38 390.22 242.34 390.45 242.89 393.19 243.72 386.71 253.86 386.77 264.66"/>
  <polygon class="cls-22" points="320.03 256.14 320.07 253.49 320.93 252.49 320.01 238.05 324.39 232.51 325.18 242.14 330.48 242.05 330.47 243.91 330.85 249.74 329.96 250.84 330.26 257.05 331.37 257.1 331.9 266.64 336.03 266.57 339.29 269.68 339.55 271.18 340.18 274.38 340.16 280.47 331.71 280.59 331.64 280.21 322.13 279.89 321.53 277.55 319.39 274.26 319.03 272.43 319.04 269.85 319.88 267.24 319.04 263.28 319.07 258.56 319.31 257.15 320.03 256.14"/>
  <polygon class="cls-34" points="224.04 256.35 222.14 253.67 216.13 252.21 217.1 248.92 216.08 241.41 242.58 235.09 242.51 249.82 242.48 252.23 241.63 252.54 240.74 252.03 239.9 252.43 239.21 251.91 237.11 253.39 235.18 252.21 233.1 252.9 230.75 252.65 230.3 253.2 226.51 254.74 225.79 256.33 224.04 256.35"/>
  <polygon class="cls-29" points="242.51 249.82 242.58 235.09 263.54 235.48 263.59 249.74 257.69 249.75 257.67 249.47 242.51 249.82"/>
  <polygon class="cls-35" points="263.59 249.74 263.54 235.48 274.49 237.33 282 243.04 290.8 240.96 291.34 255.5 286.15 255.58 286.26 261.06 281.82 261.01 273.69 261.21 275.28 260.1 275.29 258.25 267.32 258.35 267.21 256.5 267.66 256.4 267.63 255.19 265.16 255.18 267.24 249.76 263.59 249.74"/>
  <polygon class="cls-34" points="309.24 256.84 301.79 256.8 301.6 255.21 291.34 255.5 290.8 240.96 311.32 240.78 319.2 236.87 320.01 238.05 320.93 252.49 320.07 253.49 320.03 256.14 309.24 256.84"/>
  <polygon class="cls-40" points="339.55 271.18 339.29 269.68 336.03 266.57 331.9 266.64 331.37 257.1 330.26 257.05 329.96 250.84 330.85 249.74 330.47 243.91 338.04 243.42 338.95 245.33 339.88 244.62 340.07 243.2 341.95 244.93 342.76 243.72 342.32 241.49 343.06 241.16 348.23 243.9 348.64 245.08 349.62 244.95 352.38 246.39 353.3 247.78 353.1 248.78 353.97 249.09 353.66 250.32 352.78 251.03 353.1 251.74 355.73 252.21 356.62 270.07 339.55 271.18"/>
  <polygon class="cls-4" points="383.53 272.92 377.54 272.81 356.84 274.19 356.62 270.07 355.73 252.21 353.1 251.74 352.78 251.03 353.66 250.32 353.97 249.09 353.1 248.78 353.3 247.78 352.38 246.39 354.26 246.93 355.58 247.9 357.29 248.09 360.52 247.97 361.97 247.06 363.16 247.92 364.21 247.54 364.47 248.09 365.03 248.14 365.13 249.16 367.33 250.69 368.12 252.86 369.52 253.36 369.71 255.04 371.88 255.04 372.4 261.23 376.57 261.44 376.83 265.7 385.03 265.37 385.42 267.56 384.93 270.54 383.53 272.92"/>
  <polygon class="cls-13" points="242.71 265.38 242.48 252.23 242.51 249.82 257.67 249.47 257.69 249.75 263.59 249.74 267.24 249.76 265.16 255.18 267.63 255.19 267.66 256.4 267.21 256.5 267.32 258.35 267.44 260.55 266.3 260.57 266.24 263.11 265.32 263.12 265.12 265.63 260.12 265.4 260.05 265.1 242.71 265.38"/>
  <polygon class="cls-30" points="212.54 283.41 216.9 275.9 225.09 270.25 221.66 259.27 224.04 256.35 225.79 256.33 226.51 254.74 230.3 253.2 230.75 252.65 233.1 252.9 235.18 252.21 237.11 253.39 239.21 251.91 239.9 252.43 240.74 252.03 241.63 252.54 242.48 252.23 242.71 265.38 241.8 265.34 241.83 270.65 243.05 270.73 242.81 285.47 238.57 286.99 236.46 287.25 232.57 289.11 231.58 288.56 228.9 290.22 228.16 289.77 225.41 290.92 223.9 291.1 221.25 289.54 220.65 288.15 217.87 285.26 216.3 285.23 214.37 283.74 212.54 283.41"/>
  <polygon class="cls-42" points="281.82 261.01 286.26 261.06 286.15 255.58 291.34 255.5 301.6 255.21 301.79 256.8 309.24 256.84 309.37 265.55 308.9 265.56 308.79 271.75 293.5 271.79 291.28 276.89 291.3 282.92 285.58 282.9 286.01 277.41 281.03 277.34 280.15 271.8 281.48 271.75 281.5 266.42 282.82 266.2 283.11 265.04 281.82 261.01"/>
  <polygon class="cls-16" points="320.82 284.56 312.1 284.78 312.43 278.28 310.26 274.45 309.9 271.8 308.79 271.75 308.9 265.56 309.37 265.55 309.24 256.84 320.03 256.14 319.31 257.15 319.07 258.56 319.04 263.28 319.88 267.24 319.04 269.85 319.03 272.43 319.39 274.26 321.53 277.55 322.13 279.89 323.66 282.45 325.79 284.5 320.82 284.56"/>
  <polygon class="cls-38" points="265.12 265.63 265.32 263.12 266.24 263.11 266.3 260.57 267.44 260.55 267.32 258.35 275.29 258.25 275.28 260.1 273.69 261.21 281.82 261.01 283.11 265.04 282.82 266.2 281.5 266.42 281.48 271.75 280.15 271.8 281.03 277.34 286.01 277.41 285.58 282.9 278.47 282.79 278.46 285.44 275.79 285.54 275.54 289.63 270.3 289.15 270.44 286.47 261.66 286.44 261.21 286.14 261.4 285.55 260.86 285.16 261.19 283.95 261.81 283.4 261.32 283.12 261.41 282.51 262.99 282.03 263.06 281.62 262.29 281.16 263.92 280.52 265.2 277.31 265.12 265.63"/>
  <polygon class="cls-45" points="249.64 286.2 242.95 286.1 242.81 285.47 243.05 270.73 241.83 270.65 241.8 265.34 242.71 265.38 260.05 265.1 260.12 265.4 265.12 265.63 265.2 277.31 263.92 280.52 262.29 281.16 263.06 281.62 262.99 282.03 261.41 282.51 261.32 283.12 261.81 283.4 261.19 283.95 260.86 285.16 261.4 285.55 261.21 286.14 249.64 286.2"/>
  <polygon class="cls-28" points="346.26 293.43 340.59 293.61 340.16 280.47 340.18 274.38 339.55 271.18 356.62 270.07 356.84 274.19 357.79 293.08 346.26 293.43"/>
  <polygon class="cls-5" points="291.3 282.92 291.28 276.89 293.5 271.79 308.79 271.75 309.9 271.8 310.26 274.45 312.43 278.28 312.1 284.78 311.99 287.3 312.64 289.69 309.52 290.47 309.31 290.07 308.3 290.1 308.15 288.93 302.94 289.09 303.27 288.32 301.83 287.95 301.33 287.28 301.39 283.21 291.3 282.92"/>
  <polygon class="cls-3" points="377.53 306.25 368.21 306.16 368.05 303.17 358.78 302.84 357.79 293.08 356.84 274.19 377.54 272.81 383.53 272.92 381.96 277.93 381.97 280.73 381.41 283.61 379.8 285.22 379.41 286.89 378.79 287.53 378.68 289.56 379.66 292.41 378.34 294.45 378.86 296.29 378.01 298.6 377.53 306.25"/>
  <polygon class="cls-36" points="320.82 284.56 325.79 284.5 323.66 282.45 322.13 279.89 331.64 280.21 331.71 280.59 340.16 280.47 340.59 293.61 338.82 293.65 338.72 295.13 341.18 296.68 340.69 300.13 339.18 300.13 339.19 299.56 336.41 299.6 336.23 298.93 333.53 298.97 333.45 302.18 331.17 302.16 331.15 301.26 328.06 301.18 324.4 301.06 321.54 300.92 320.82 284.56"/>
  <polygon class="cls-18" points="280.35 317.92 274.49 318.01 275.54 289.63 275.79 285.54 278.46 285.44 278.47 282.79 285.58 282.9 291.3 282.92 301.39 283.21 301.33 287.28 301.83 287.95 303.27 288.32 302.94 289.09 303.26 301.28 309.04 301.34 308.92 317.68 280.35 317.92"/>
  <polygon class="cls-21" points="191.69 317.82 185.07 317.67 185 301.87 199.15 292.75 203.11 288.3 212.54 283.41 214.37 283.74 216.3 285.23 216.21 317.79 191.69 317.82"/>
  <polygon class="cls-6" points="302.94 289.09 308.15 288.93 308.3 290.1 309.31 290.07 309.52 290.47 312.64 289.69 311.99 287.3 312.1 284.78 320.82 284.56 321.54 300.92 324.4 301.06 324.48 303.02 323.48 303.61 321.7 303.69 321.6 302.93 319.78 302.9 319.51 300.35 309.21 300.87 309.04 301.34 303.26 301.28 302.94 289.09"/>
  <polygon class="cls-18" points="216.21 317.79 216.3 285.23 217.87 285.26 220.65 288.15 221.25 289.54 223.9 291.1 225.41 290.92 228.16 289.77 228.9 290.22 231.58 288.56 232.57 289.11 236.46 287.25 238.57 286.99 242.81 285.47 242.95 286.1 249.64 286.2 249.66 317.89 222.46 317.86 216.21 317.79"/>
  <polygon class="cls-4" points="249.66 317.89 249.64 286.2 261.21 286.14 261.66 286.44 270.44 286.47 270.3 289.15 275.54 289.63 274.49 318.01 254.13 317.96 249.66 317.89"/>
  <polygon class="cls-19" points="379.24 317.95 374.94 318.07 347.22 317.88 346.94 306.81 347.71 306.77 348.52 305.86 348.39 304.04 347.84 303.86 347.72 302.25 348.44 302.32 348.36 301.48 346.89 300.86 346.88 300.18 347.29 300.22 347.2 298.7 346.76 298.6 346.26 293.43 357.79 293.08 358.78 302.84 368.05 303.17 368.21 306.16 377.53 306.25 377.26 314.43 378.21 316.94 379.24 317.95"/>
  <polygon class="cls-33" points="326.86 317.67 327.49 314.65 327.2 308.74 328.32 308.65 328.06 301.18 331.15 301.26 331.17 302.16 333.45 302.18 333.53 298.97 336.23 298.93 336.41 299.6 339.19 299.56 339.18 300.13 340.69 300.13 341.18 296.68 338.72 295.13 338.82 293.65 340.59 293.61 346.26 293.43 346.76 298.6 347.2 298.7 347.29 300.22 346.88 300.18 346.89 300.86 348.36 301.48 348.44 302.32 347.72 302.25 347.84 303.86 348.39 304.04 348.52 305.86 347.71 306.77 346.94 306.81 347.22 317.88 345.44 317.82 326.86 317.67"/>
  <polygon class="cls-19" points="309.04 301.34 309.21 300.87 319.51 300.35 319.78 302.9 321.6 302.93 321.7 303.69 323.48 303.61 324.48 303.02 324.4 301.06 328.06 301.18 328.32 308.65 327.2 308.74 327.49 314.65 326.86 317.67 310.7 317.7 308.92 317.68 309.04 301.34"/>
  <polygon class="cls-31" points="473.8 238.82 472.65 261.33 467.99 261.46 465.86 260.43 464.3 261.33 456.67 261.38 456.98 259.72 457.82 258.57 459.18 251.26 458.36 247.72 458.93 244.76 458.33 243.02 458.67 241.8 458.06 240.83 458.17 239.27 456.33 226.19 457.23 225.41 457.65 224.24 457.43 223.52 458.41 223.27 461.26 218.85 463.01 217.55 463.02 215.51 464 211.38 463.84 209.9 465.02 209.01 467.83 208.61 468.97 210.21 469.08 211.55 468.44 214.15 466.14 219.19 466.34 222.23 467.68 223.04 468.77 220.23 471.43 219.64 471.85 219.95 472.4 221.57 471.97 222.68 473.37 223.64 474.32 226.49 473.8 238.82"/>
  <polygon class="cls-12" points="461.96 337.75 461.37 346.23 458.79 346 443.72 348.11 441.39 351.14 440.6 350.18 440.79 345.83 442.53 342.38 443.19 334 442.78 331.52 443.17 326.06 442.29 323.09 443.37 313.2 444.87 313.09 452.43 317.45 461.29 318.89 461.53 314.93 463.42 315.02 461.96 337.75"/>
  <polygon class="cls-29" points="424.13 341.98 422.53 343.15 419.44 347.11 407.46 347.65 406.88 350.53 407.08 351.71 405.4 351.72 402.24 350.7 400.85 350.85 400.71 349.83 399.2 348.5 397.46 348.54 395.55 345.23 395.1 343.67 393.11 341.38 393 340.87 393.93 339.43 393.31 334.83 393.68 334.13 393.49 331.54 391.9 331.02 391.92 329.94 392.67 328.93 390.99 327.57 390.68 326.84 389.64 326.45 405.57 316.57 420.34 325.49 414.98 333.03 423.03 339.16 424.13 341.98"/>
  <polygon class="cls-32" points="409.51 356.41 409.28 354.96 407.72 353.39 407.74 352.18 407.08 351.71 406.88 350.53 407.46 347.65 419.44 347.11 422.53 343.15 424.13 341.98 425.27 341.76 429.18 339.52 429.32 341.16 432.02 341.96 434.83 342.44 434.77 340.66 436.92 341.12 438.28 342.65 442.53 342.38 440.79 345.83 440.6 350.18 441.39 351.14 442.55 353.67 441.44 357.93 429.81 368.97 424.06 365.54 409.51 356.41"/>
  <polygon class="cls-7" points="460.76 355.54 441.44 357.93 442.55 353.67 441.39 351.14 443.72 348.11 458.79 346 461.37 346.23 460.76 355.54"/>
  <polygon class="cls-43" points="445.13 377.15 445.38 373.41 444.98 368.66 443.79 365.64 441.98 362.83 441.82 361.73 442.55 359.86 441.44 357.93 460.76 355.54 460.49 359.77 463.69 364.66 452.74 371.16 455.91 376.32 455.93 377.16 450.3 383.71 448.33 383.36 447.74 382.45 444.59 381.33 445.16 379.36 445.13 377.15"/>
  <polygon class="cls-10" points="441.44 357.93 442.55 359.86 441.82 361.73 441.98 362.83 443.79 365.64 444.98 368.66 445.38 373.41 445.13 377.15 431.11 369.79 429.81 368.97 441.44 357.93"/>
  <polygon class="cls-49" points="444.11 388.63 443.96 387.47 444.75 386.15 444.96 384.23 443.99 383.75 444.59 381.33 447.74 382.45 448.33 383.36 450.3 383.71 449.58 386.9 444.11 388.63"/>
  <polygon class="cls-40" points="463.69 384.12 464.71 385.39 466.16 396.91 451.54 400.81 451.98 400.49 451.71 399.56 451.13 399.43 450.97 398.33 452.07 397.95 452.15 397.31 452.61 397.18 452.7 392.99 453.64 392.7 453.8 392.12 453.64 391.34 451.82 390.12 451.46 389.45 451.66 386.16 458.36 382.75 463.69 384.12"/>
  <polygon class="cls-14" points="441.57 388.94 443.99 383.75 444.96 384.23 444.75 386.15 443.96 387.47 444.11 388.63 440.28 394.41 440.27 392.44 441.57 388.94"/>
  <polygon class="cls-47" points="442.52 392.34 445.54 395.39 446.59 395.34 447.38 397.42 444.29 398.67 445.88 401.06 440.37 401.59 439.32 398.19 442.52 392.34"/>
  <polygon class="cls-9" points="430.05 405.98 430.05 404.12 433.18 399.06 437.32 397.6 437.93 400.39 435.1 403.72 431.97 405.71 430.05 405.98"/>
  <path class="cls-44" d="M532.62,372.07l-6.8,4.96-5.6-2.05-3.98.67-8.12,6.1-5.71.87,2.39-3.57,5.97-3.52,2.75-4.95,3.24-1.9-1.59-.4-13.95,9.88-17.28.75-5.31,1-3.26,2.95-9.58-1.26-2.1,2.51,1.02,1.27,1.45,11.52,39.97-9,26.71-12.65,2.16-2.58-2.38-.61ZM490.35,392.46l-7.72,3.64-8.4,2.46h-2.25l-.08.39,1.95.06,9.67-2.68,3.31-1.68,8.53-3.41.3-.56-1.1.22-4.2,1.57ZM516.14,372.25l-.44-.14-.77-.61-.23-.62-.55.08-.06.77-.9.63-.46.66.05.8.55.54.8-.16h1.02s.88.41.88.41l.52.43.48.14v-.44s-.3-.51-.3-.51l.17-.62-.19-.62.1-.58-.66-.17ZM523.81,371.6l.63.14.25.54.07.81v.78s.36-.43.36-.43l.3-.39.21-.39-.16-.51v-.48s.26-.18.26-.18l.03-.3-.57-.11-.79-.29-.97-.8.13.66-.3.42-.3.3.24.24h.6ZM529.29,362.25l.46-.5.81-.8,1.05-.17.82-.32.32-.56-.84-.05-.63.32-1.02.12-.76.1-.18.53-.23.42-.35-.54-.48-.04-.18.59-.46.36-.1.67.71-.24,1.07.11Z"/>
  <path class="cls-20" d="M453.64,391.34l-1.83-1.23-.36-.67-6.43-.48-2.51,3.38,3.02,3.04,1.05-.05.79,2.08,3.6.92,1.09-.39.08-.64.46-.13.09-4.19.94-.29.16-.58-.16-.77ZM451.13,399.43l-7.37,3.54,7.78-2.16.44-.32-.27-.93-.58-.13Z"/>
</svg>